<?xml version="1.0" standalone="no"?>
<!DOCTYPE svg PUBLIC "-//W3C//DTD SVG 1.1//EN" "http://www.w3.org/Graphics/SVG/1.1/DTD/svg11.dtd" >
<svg xmlns="http://www.w3.org/2000/svg">
<metadata>Generated by IcoMoon</metadata>
<defs>
<font id="icomoon" horiz-adv-x="1024">
<font-face units-per-em="1024" ascent="960" descent="-64" />
<missing-glyph horiz-adv-x="1024" />
<glyph unicode="&#x20;" horiz-adv-x="512" d="" />
<glyph unicode="&#xe900;" glyph-name="arrow-down" d="M560.626 371.194c-8.533-17.067-34.133-42.667-51.2-42.667s-42.667 25.6-51.2 34.133l-358.4 375.467c-8.533 8.533-25.6 17.067-42.667 17.067s-25.6-8.533-42.667-17.067c-17.067-17.067-17.067-59.733 8.533-85.333l443.733-469.333c8.533-8.533 25.6-17.067 42.667-17.067v0c8.533 0 25.6 0 42.667 17.067l452.267 469.333c8.533 8.533 17.067 25.6 17.067 42.667s-8.533 34.133-17.067 42.667c-8.533 8.533-25.6 17.067-42.667 17.067s-25.6-8.533-42.667-17.067l-358.4-366.933z" />
<glyph unicode="&#xe901;" glyph-name="arrow-up" d="M463.374 550.406c8.533 17.067 34.133 42.667 51.2 42.667s42.667-25.6 51.2-34.133l358.4-375.467c8.533-8.533 25.6-17.067 42.667-17.067s25.6 8.533 42.667 17.067c17.067 17.067 17.067 59.733-8.533 85.333l-443.733 469.333c-8.533 8.533-25.6 17.067-42.667 17.067v0c-8.533 0-25.6 0-42.667-17.067l-452.267-469.333c-8.533-8.533-17.067-25.6-17.067-42.667s8.533-34.133 17.067-42.667c8.533-8.533 25.6-17.067 42.667-17.067s25.6 8.533 42.667 17.067l358.4 366.933z" />
<glyph unicode="&#xe902;" glyph-name="arrow-left" d="M422.394 412.174c-17.067 8.533-42.667 34.133-42.667 51.2s25.6 42.667 34.133 51.2l375.467 358.4c8.533 8.533 17.067 25.6 17.067 42.667s-8.533 25.6-17.067 42.667c-17.067 17.067-59.733 17.067-85.333-8.533l-469.333-443.733c-8.533-8.533-17.067-25.6-17.067-42.667v0c0-8.533 0-25.6 17.067-42.667l469.333-452.267c8.533-8.533 25.6-17.067 42.667-17.067s34.133 8.533 42.667 17.067c8.533 8.533 17.067 25.6 17.067 42.667s-8.533 25.6-17.067 42.667l-366.933 358.4z" />
<glyph unicode="&#xe903;" glyph-name="arrow-right" d="M601.607 509.426c17.067-8.533 42.667-34.133 42.667-51.2s-25.6-42.667-34.133-51.2l-375.467-358.4c-8.533-8.533-17.067-25.6-17.067-42.667s8.533-25.6 17.067-42.667c17.067-17.067 59.733-17.067 85.333 8.533l469.333 443.733c8.533 8.533 17.067 25.6 17.067 42.667v0c0 8.533 0 25.6-17.067 42.667l-469.333 452.267c-8.533 8.533-25.6 17.067-42.667 17.067s-34.133-8.533-42.667-17.067c-8.533-8.533-17.067-25.6-17.067-42.667s8.533-25.6 17.067-42.667l366.933-358.4z" />
<glyph unicode="&#xe904;" glyph-name="login" d="M233.868 972.802v-284.444h88.494v195.951h537.284v-847.012h-537.284v189.63h-88.494v-278.123h714.272v1024zM442.46 277.493l75.852-75.852 208.593 202.272h6.321v113.778h-6.321l-208.593 202.272-75.852-75.852 126.42-126.42h-493.037v-113.778h493.037z" />
<glyph unicode="&#xe905;" glyph-name="search" d="M1024 25.6l-281.6 281.6c57.6 70.4 89.6 153.6 89.6 249.6 0 230.4-185.6 416-416 416s-416-185.6-416-416 185.6-416 416-416c96 0 179.2 32 249.6 83.2l281.6-281.6 76.8 83.2zM416 256c-166.4 0-300.8 134.4-300.8 300.8s134.4 300.8 300.8 300.8 300.8-134.4 300.8-300.8-134.4-300.8-300.8-300.8z" />
<glyph unicode="&#xe906;" glyph-name="back-to-top" d="M547.767 747.308c0 0-4.472 4.472-8.943 4.472v0 0c0 0-4.472 0-4.472 4.472h-4.472c0 0 0 0 0 0s-4.472 0-4.472 0-4.472 0-8.943 0v0c0 0-4.472 0-8.943 0h-17.886l-8.943-4.472-304.070-286.183c-8.943-8.943-13.415-17.886-13.415-31.301s4.472-22.358 13.415-31.301c8.943-8.943 17.886-13.415 31.301-13.415 0 0 0 0 0 0 13.415 0 22.358 4.472 31.301 13.415l223.581 210.166v-630.498c0-13.415 4.472-22.358 13.415-31.301s22.358-13.415 31.301-13.415c13.415 0 22.358 4.472 31.301 13.415s13.415 17.886 13.415 31.301v626.026l219.109-210.166c8.943-8.943 22.358-13.415 31.301-13.415 0 0 0 0 0 0 13.415 0 22.358 4.472 31.301 13.415s13.415 17.886 13.415 31.301c0 13.415-4.472 22.358-13.415 31.301l-286.183 286.183zM198.981 868.042h626.026c26.83 0 44.716 22.358 44.716 44.716s-22.358 44.716-44.716 44.716h-626.026c-22.358 4.472-44.716-17.886-44.716-40.245s22.358-49.188 44.716-49.188z" />
<glyph unicode="&#xe907;" glyph-name="qoute" horiz-adv-x="1325" d="M337.913 515.035c0-50.598 54.113-65.054 111.833-97.581s119.048-83.125 119.048-209.619c0-151.793-115.44-271.059-263.348-271.059-173.16 0-299.422 151.793-299.422 372.254 0 285.515 198.413 531.276 450.937 639.699l115.44-162.636c-133.477-54.212-234.488-177.092-234.488-271.059zM1084.665 515.035c0-50.598 54.113-65.054 111.833-97.581s119.053-83.125 119.053-209.619c0-151.793-115.446-271.059-263.352-271.059-173.161 0-299.422 151.793-299.422 372.254 0 285.515 198.411 531.276 450.937 639.699l115.44-162.636c-133.478-54.212-234.488-177.092-234.488-271.059z" />
<glyph unicode="&#xe908;" glyph-name="youtube" d="M1013.8 652.8c0 0-10 70.6-40.8 101.6-39 40.8-82.6 41-102.6 43.4-143.2 10.4-358.2 10.4-358.2 10.4h-0.4c0 0-215 0-358.2-10.4-20-2.4-63.6-2.6-102.6-43.4-30.8-31-40.6-101.6-40.6-101.6s-10.2-82.8-10.2-165.8v-77.6c0-82.8 10.2-165.8 10.2-165.8s10-70.6 40.6-101.6c39-40.8 90.2-39.4 113-43.8 82-7.8 348.2-10.2 348.2-10.2s215.2 0.4 358.4 10.6c20 2.4 63.6 2.6 102.6 43.4 30.8 31 40.8 101.6 40.8 101.6s10.2 82.8 10.2 165.8v77.6c-0.2 82.8-10.4 165.8-10.4 165.8zM406.2 315.2v287.8l276.6-144.4-276.6-143.4z" />
<glyph unicode="&#xe909;" glyph-name="linkedin" d="M384 576h177.106v-90.782h2.532c24.64 44.194 84.958 90.782 174.842 90.782 186.946 0 221.52-116.376 221.52-267.734v-308.266h-184.61v273.278c0 65.184-1.334 149.026-96.028 149.026-96.148 0-110.82-70.986-110.82-144.292v-278.012h-184.542v576zM64 576h192v-576h-192v576zM256 736c0-53.019-42.981-96-96-96s-96 42.981-96 96c0 53.019 42.981 96 96 96s96-42.981 96-96z" />
<glyph unicode="&#xe90a;" glyph-name="facebook" d="M928 960h-832c-52.8 0-96-43.2-96-96v-832c0-52.8 43.2-96 96-96h416v448h-128v128h128v64c0 105.8 86.2 192 192 192h128v-128h-128c-35.2 0-64-28.8-64-64v-64h192l-32-128h-160v-448h288c52.8 0 96 43.2 96 96v832c0 52.8-43.2 96-96 96z" />
<glyph unicode="&#xe90b;" glyph-name="twitter" d="M1024 733.6c-37.6-16.8-78.2-28-120.6-33 43.4 26 76.6 67.2 92.4 116.2-40.6-24-85.6-41.6-133.4-51-38.4 40.8-93 66.2-153.4 66.2-116 0-210-94-210-210 0-16.4 1.8-32.4 5.4-47.8-174.6 8.8-329.4 92.4-433 219.6-18-31-28.4-67.2-28.4-105.6 0-72.8 37-137.2 93.4-174.8-34.4 1-66.8 10.6-95.2 26.2 0-0.8 0-1.8 0-2.6 0-101.8 72.4-186.8 168.6-206-17.6-4.8-36.2-7.4-55.4-7.4-13.6 0-26.6 1.4-39.6 3.8 26.8-83.4 104.4-144.2 196.2-146-72-56.4-162.4-90-261-90-17 0-33.6 1-50.2 3 93.2-59.8 203.6-94.4 322.2-94.4 386.4 0 597.8 320.2 597.8 597.8 0 9.2-0.2 18.2-0.6 27.2 41 29.4 76.6 66.4 104.8 108.6z" />
<glyph unicode="&#xe90c;" glyph-name="check" d="M512 960c-283.569 0-512-228.431-512-512s228.431-512 512-512c283.569 0 512 228.431 512 512s-228.431 512-512 512zM858.585 589.785l-385.969-362.338c-31.508-23.631-78.769-23.631-102.4 0l-157.538 149.662c0 0 0 0 0 0-15.754 23.631-15.754 55.138 0 70.892 23.631 23.631 55.138 23.631 78.769 0l78.769-70.892c23.631-23.631 70.892-23.631 102.4 0l307.2 283.569c23.631 23.631 55.138 23.631 78.769 0 0 0 0 0 0 0 15.754-23.631 15.754-55.138 0-70.892z" />
<glyph unicode="&#xe90d;" glyph-name="facebook-circle" d="M1024 448c0 283.307-228.693 512-512 512s-512-228.693-512-512c0-256 187.733-467.627 433.493-505.173v358.4h-133.12v146.773h129.707v112.64c0 129.707 75.093 197.973 194.56 197.973 54.613 0 116.053-10.24 116.053-10.24v-126.293h-64.853c-64.853 0-81.92-40.96-81.92-78.507v-95.573h143.36l-23.893-146.773h-119.467v-358.4c242.347 37.547 430.080 249.173 430.080 505.173z" />
<glyph unicode="&#xe90e;" glyph-name="linkedin-circle" horiz-adv-x="1027" d="M872.296 811.744c-93.091 96.539-224.108 148.256-362.020 148.256-99.987 0-199.973-27.582-282.721-86.195-82.747-55.165-148.256-134.465-189.63-227.556-37.926-93.091-48.269-196.525-27.582-296.512s68.956-189.63 141.36-262.034 162.047-120.673 262.034-141.36 203.421-10.343 296.512 27.582c93.091 37.926 172.391 103.434 231.003 189.63 55.165 82.747 86.195 182.734 86.195 282.721-3.448 137.912-58.613 268.929-155.152 365.468zM382.707 218.721c0-3.448 0-3.448-3.448-6.896 0 0-3.448-3.448-6.896-3.448h-96.539c-3.448 0-3.448 0-6.896 3.448 0 0-3.448 3.448-3.448 6.896v334.438c0 0 0 3.448 3.448 3.448 0 0 3.448 0 3.448 3.448h106.882c0 0 3.448 0 3.448-3.448 0 0 0-3.448 3.448-3.448v-334.438h-3.448zM379.259 642.801c-3.448-6.896-6.896-13.791-13.791-20.687s-13.791-10.343-20.687-13.791c-6.896-3.448-17.239-3.448-24.135-3.448-13.791 0-24.135 3.448-34.478 10.343-6.896 3.448-17.239 13.791-20.687 27.582-3.448 10.343-6.896 24.135-3.448 34.478s6.896 24.135 17.239 31.030c10.343 6.896 20.687 13.791 31.030 17.239s24.135 0 34.478-3.448 20.687-13.791 27.582-24.135c6.896-10.343 10.343-20.687 10.343-34.478 0-6.896 0-13.791-3.448-20.687zM799.892 211.825c0 0-3.448-3.448-6.896-3.448h-103.434c0 0-3.448 0-3.448 3.448 0 0 0 3.448-3.448 3.448v182.734c0 48.269-17.239 79.3-58.613 79.3-13.791 0-24.135-3.448-37.926-10.343-10.343-6.896-17.239-17.239-24.135-31.030-3.448-10.343-3.448-17.239-3.448-27.582v-186.182c0-3.448 0-3.448-3.448-6.896 0 0-3.448-3.448-6.896-3.448h-103.434c0 0-3.448 0-3.448 3.448 0 0 0 3.448-3.448 3.448v3.448c0 48.269 0 275.825 0 330.99v3.448c0 0 0 3.448 3.448 3.448 0 0 3.448 0 3.448 3.448h106.882c0 0 3.448 0 3.448-3.448 0 0 0-3.448 3.448-3.448v-44.822c10.343 17.239 24.135 34.478 44.822 44.822s37.926 13.791 58.613 13.791c75.852 0 134.465-48.269 134.465-155.152v-189.63c3.448-10.343 3.448-10.343 3.448-13.791zM561.993 508.337v0 0z" />
<glyph unicode="&#xe90f;" glyph-name="remove" d="M921.6-43.52c-20.48 0-40.96 10.24-51.2 20.48l-358.4 358.4-358.4-348.16c-30.72-30.72-81.92-30.72-112.64 0s-30.72 81.92 0 112.64l358.4 348.16-348.16 358.4c-30.72 30.72-30.72 81.92 0 112.64s81.92 30.72 112.64 0l348.16-358.4 358.4 358.4c30.72 30.72 81.92 30.72 112.64 0s30.72-81.92 0-112.64l-358.4-358.4 358.4-358.4c30.72-30.72 30.72-81.92 0-112.64-20.48-10.24-40.96-20.48-61.44-20.48z" />
<glyph unicode="&#xe910;" glyph-name="twitter-circle" d="M512 960c-283.307 0-512-228.693-512-512s228.693-512 512-512c283.307 0 512 228.693 512 512s-228.693 512-512 512zM771.413 546.987c6.827-174.080-119.467-365.227-348.16-365.227-68.267 0-133.12 20.48-187.733 54.613 64.853-6.827 129.707 10.24 180.907 51.2-54.613 0-98.987 37.547-116.053 85.333 20.48-3.413 37.547-3.413 54.613 3.413-58.027 10.24-98.987 64.853-98.987 122.88 17.067-10.24 34.133-13.653 54.613-13.653-54.613 37.547-71.68 109.227-37.547 163.84 61.44-75.093 150.187-122.88 252.587-129.707-13.653 75.093 44.373 150.187 122.88 150.187 34.133 0 68.267-13.653 88.747-37.547 27.307 6.827 54.613 17.067 78.507 30.72-10.24-27.307-27.307-51.2-54.613-68.267 23.893 3.413 47.787 10.24 71.68 20.48-17.067-27.307-37.547-47.787-61.44-68.267z" />
<glyph unicode="&#xe911;" glyph-name="checkmark" horiz-adv-x="1229" d="M1116.16 826.88v0c0 0 0 0 0 0l-81.92 61.44c-20.48 10.24-51.2 0-71.68-20.48l-491.52-614.4-235.52 204.8c-10.24 10.24-30.72 10.24-40.96 10.24s-30.72-10.24-30.72-20.48l-61.44-81.92c-10.24-20.48-10.24-51.2 10.24-71.68l337.92-276.48c10.24-10.24 20.48-10.24 30.72-10.24 10.24 10.24 30.72 10.24 40.96 30.72l604.16 716.8c10.24 10.24 10.24 51.2-10.24 71.68z" />
<glyph unicode="&#xe912;" glyph-name="chat" d="M932.032 191.716c4.063-31.909 9.018-64.116 13.477-95.529 5.054-36.17 9.91-72.142 15.162-110.097l-9.91 0.694c-64.512 9.018-128.826 17.937-193.932 26.558h-3.27c-5.11-0.043-10.138-1.298-14.666-3.667-72.070-39.292-152.774-60.066-234.859-60.449-36.666 0.099-73.213 4.152-109.006 12.090-118.674 26.693-223.382 96.107-294.18 195.019s-102.737 220.411-89.734 341.352c13.003 120.941 70.039 232.874 160.243 314.477s207.276 127.173 328.911 128.030v-59.458c-89.871 0.035-177.529-27.885-250.824-79.891s-128.599-125.523-158.248-210.363c-21.215-58.008-29.656-119.91-24.748-181.483 4.909-61.569 23.052-121.354 53.189-175.266 29.951-54.094 71.064-101.198 120.611-138.187s106.393-63.019 166.77-76.357c31.866-6.99 64.393-10.511 97.016-10.504 72.364 0.482 143.482 18.868 207.013 53.512 13.18 7.023 27.873 10.729 42.81 10.802 3.71 0.017 7.419-0.215 11.099-0.694 41.522-5.549 82.944-11.198 126.249-17.144l-2.775 19.819-1.784 12.982c-1.453 10.372-2.94 20.711-4.459 31.017-3.072 21.306-6.243 43.305-9.117 65.206v0.793c-1.698 16.975 1.754 34.069 9.91 49.053v0.495c41.892 74.64 60.201 160.216 52.521 245.463-13.279 143.096-79.971 254.183-198.194 330.19-70.59 45.811-152.887 70.308-237.039 70.557v59.458c95.628-0.139 189.169-27.948 269.345-80.070 135.366-87.106 210.184-214.247 225.148-374.585 8.902-96.989-11.832-194.398-59.458-279.354-2.431-4.42-3.567-9.434-3.27-14.468zM558.354 444.703c0-11.267-3.34-22.284-9.602-31.655-6.26-9.371-15.159-16.675-25.574-20.985-10.412-4.314-21.867-5.444-32.92-3.244s-21.207 7.624-29.174 15.595c-7.971 7.967-13.398 18.121-15.595 29.174-2.2 11.053-1.070 22.511 3.24 32.923 4.314 10.412 11.617 19.311 20.989 25.57 9.368 6.263 20.384 9.602 31.655 9.602 15.066-0.152 29.468-6.207 40.121-16.86s16.704-25.055 16.86-40.121zM701.843 501.681c11.274 0.155 22.34-3.036 31.797-9.17 9.457-6.137 16.883-14.937 21.339-25.296 4.453-10.356 5.734-21.801 3.683-32.884-2.055-11.086-7.35-21.312-15.215-29.389-7.868-8.073-17.953-13.636-28.979-15.974-11.029-2.342-22.505-1.361-32.973 2.821s-19.463 11.376-25.841 20.672c-6.382 9.295-9.86 20.272-9.999 31.546-0.116 7.482 1.245 14.911 4.007 21.867 2.765 6.953 6.877 13.292 12.096 18.65 5.222 5.361 11.452 9.636 18.33 12.579 6.881 2.943 14.273 4.499 21.755 4.578zM300.414 387.726c-11.282-0.059-22.328 3.231-31.737 9.457s-16.759 15.102-21.117 25.511c-4.359 10.405-5.529 21.871-3.364 32.943 2.165 11.076 7.568 21.256 15.525 29.253 7.957 8 18.109 13.454 29.17 15.677s22.533 1.113 32.963-3.191c10.429-4.304 19.344-11.608 25.62-20.982 6.273-9.378 9.622-20.407 9.622-31.688 0.003-15.063-5.962-29.511-16.582-40.187-10.622-10.679-25.039-16.718-40.1-16.794z" />
<glyph unicode="&#xe913;" glyph-name="play" d="M915.158 447.996l-806.306-469.551v939.106l806.306-469.554z" />
<glyph unicode="&#xe914;" glyph-name="circle-right" horiz-adv-x="1027" d="M515.2 960c-281.6 0-512-230.4-512-512s230.4-512 512-512 512 230.4 512 512-227.2 512-512 512zM659.2 448c0-3.2 0-9.6-6.4-16l-176-169.6c-3.2-3.2-9.6-6.4-16-6.4s-12.8 3.2-16 6.4c-3.2 3.2-6.4 9.6-6.4 16s3.2 9.6 6.4 16l140.8 134.4c3.2 3.2 12.8 12.8 12.8 19.2s-9.6 16-12.8 19.2l-140.8 134.4c-3.2 3.2-6.4 9.6-6.4 16s3.2 9.6 6.4 16c9.6 6.4 25.6 6.4 32 0l176-169.6c3.2-3.2 6.4-9.6 6.4-16v0z" />
<glyph unicode="&#xe915;" glyph-name="circle-down" horiz-adv-x="1027" d="M1025.5 446.3c0 281.6-230.4 512-512 512s-512-230.4-512-512 230.4-512 512-512 512 227.2 512 512zM513.5 302.3c-3.2 0-9.6 0-16 6.4l-169.6 176c-3.2 3.2-6.4 9.6-6.4 16s3.2 12.8 6.4 16c3.2 3.2 9.6 6.4 16 6.4s9.6-3.2 16-6.4l134.4-140.8c3.2-3.2 12.8-12.8 19.2-12.8s16 9.6 19.2 12.8l134.4 140.8c3.2 3.2 9.6 6.4 16 6.4s9.6-3.2 16-6.4c6.4-9.6 6.4-25.6 0-32l-169.6-176c-3.2-3.2-9.6-6.4-16-6.4v0z" />
<glyph unicode="&#xe916;" glyph-name="circle-up" horiz-adv-x="1027" d="M1.5 449.7c0-281.6 230.4-512 512-512s512 230.4 512 512-230.4 512-512 512-512-227.2-512-512zM513.5 593.7c3.2 0 9.6 0 16-6.4l169.6-176c3.2-3.2 6.4-9.6 6.4-16s-3.2-12.8-6.4-16c-3.2-3.2-9.6-6.4-16-6.4s-9.6 3.2-16 6.4l-134.4 140.8c-3.2 3.2-12.8 12.8-19.2 12.8s-16-9.6-19.2-12.8l-134.4-140.8c-3.2-3.2-9.6-6.4-16-6.4s-9.6 3.2-16 6.4c-6.4 9.6-6.4 25.6 0 32l169.6 176c3.2 3.2 9.6 6.4 16 6.4v0z" />
<glyph unicode="&#xe917;" glyph-name="circle-left" horiz-adv-x="1027" d="M511.8-64c281.6 0 512 230.4 512 512s-230.4 512-512 512-512-230.4-512-512 227.2-512 512-512zM367.8 448c0 3.2 0 9.6 6.4 16l176 169.6c3.2 3.2 9.6 6.4 16 6.4s12.8-3.2 16-6.4c3.2-3.2 6.4-9.6 6.4-16s-3.2-9.6-6.4-16l-140.8-134.4c-3.2-3.2-12.8-12.8-12.8-19.2s9.6-16 12.8-19.2l140.8-134.4c3.2-3.2 6.4-9.6 6.4-16s-3.2-9.6-6.4-16c-9.6-6.4-25.6-6.4-32 0l-176 169.6c-3.2 3.2-6.4 9.6-6.4 16v0z" />
<glyph unicode="&#xe918;" glyph-name="close" d="M972.8-53.76c-10.24 0-20.48 5.12-25.6 10.24l-435.2 435.2-435.2-435.2c-15.36-15.36-40.96-15.36-56.32 0s-15.36 40.96 0 56.32l435.2 435.2-430.080 435.2c-15.36 15.36-15.36 40.96 0 56.32s40.96 15.36 56.32 0l430.080-435.2 435.2 435.2c15.36 15.36 40.96 15.36 56.32 0s15.36-40.96 0-56.32l-435.2-435.2 435.2-435.2c15.36-15.36 15.36-40.96 0-56.32-10.24-5.12-20.48-10.24-30.72-10.24z" />
<glyph unicode="&#xe919;" glyph-name="pin" horiz-adv-x="731" d="M366.954 960c47.865 0.008 95.265-9.517 139.487-28.030s84.407-45.652 118.254-79.866c33.843-34.214 60.69-74.834 79.005-119.538s27.736-92.618 27.728-141.005c0-203.454-364.475-655.561-364.475-655.561s-364.475 452.107-364.475 655.561c0 97.717 38.4 191.431 106.752 260.526s161.058 107.913 257.723 107.913zM366.954 456.038c29.136-0.011 57.622 8.711 81.851 25.066 24.232 16.355 43.121 39.607 54.279 66.816 11.158 27.205 14.080 57.148 8.404 86.036s-19.701 55.425-40.298 76.255c-20.601 20.83-46.844 35.018-75.421 40.767-28.573 5.75-58.195 2.805-85.115-8.464s-49.927-30.354-66.116-54.841c-16.188-24.488-24.829-53.279-24.829-82.732 0-39.482 15.511-77.348 43.124-105.27s65.064-43.619 104.121-43.633z" />
<glyph unicode="&#xe91a;" glyph-name="clock" d="M556.653 758.629h-67.189v-315.107l183.271-181.746 47.567 47.499-163.649 162.315v287.038zM522.335 960c-97.781 0.013-193.369-28.971-274.677-83.287s-144.683-131.522-182.111-221.856c-37.428-90.333-47.227-189.739-28.159-285.642 19.068-95.906 66.148-184.002 135.286-253.147s157.227-116.238 253.126-135.316c95.903-19.082 195.309-9.297 285.647 28.121 90.342 37.415 167.555 100.783 221.88 182.081 54.328 81.302 83.322 176.887 83.322 274.669-0.148 131.058-52.277 256.709-144.942 349.388-92.668 92.679-218.31 144.821-349.371 144.989v0zM918.284 439.268c-5.685-86.927-39.957-169.539-97.481-234.962l-52.263 52.263-37.277-37.277 52.263-52.326c-65.434-57.393-147.982-91.592-234.835-97.287v74.109h-52.771v-74.109c-86.913 5.703-169.511 39.947-234.964 97.414l52.772 52.326-37.34 37.277-52.581-52.39c-57.498 65.441-91.766 148.042-97.478 234.962h74.109v52.775h-74.109c5.726 86.92 39.993 169.515 97.478 234.962l52.264-52.771 37.658 37.657-52.327 52.264c65.447 57.485 148.045 91.752 234.965 97.478v-74.173h52.326v74.173c86.92-5.727 169.518-39.993 234.962-97.478l-52.263-52.264 37.15-37.657 52.263 52.264c57.535-65.417 91.81-148.032 97.481-234.963h-74.109v-52.266h74.109z" />
<glyph unicode="&#xe91b;" glyph-name="calendar" horiz-adv-x="1058" d="M343.276 272.401h152.207v-48.521h-200.783v49.797c0 35.113 11.011 60.652 33.68 76.612 7.772 5.106 16.841 10.216 26.555 14.684l54.405 22.982c12.308 5.11 20.726 11.493 26.556 19.156 5.83 7.66 8.421 17.237 8.421 28.727 0 11.493-3.888 21.071-11.011 28.73-7.124 7.663-18.135 11.493-31.737 11.493s-24.61-3.83-33.679-10.854c-9.069-7.021-14.251-17.876-15.544-31.921h-53.759c0.648 28.73 10.363 51.077 29.794 67.038 17.486 14.684 41.451 22.344 71.895 22.344 27.849 0 50.517-8.301 68.656-24.262 18.135-16.599 27.201-37.666 27.201-61.928 0-24.259-5.83-44.049-16.838-58.095-11.011-14.684-28.501-26.815-51.169-36.393l-55.054-23.62c-10.363-4.468-18.135-9.578-23.316-15.322-4.533-5.745-7.124-12.769-7.124-21.705v-8.94h0.645zM624.374 401.367c14.896 2.553 28.498 3.83 42.1 3.83 27.849 0 49.224-7.025 66.065-21.709 16.838-14.684 24.61-35.751 24.61-62.566 0-30.003-9.066-54.265-27.201-73.417-19.432-20.432-44.046-30.007-73.192-30.007-29.143 0-52.463 8.298-69.949 24.259-18.135 16.599-27.849 40.223-28.498 69.591h49.872c0-15.322 4.533-26.815 13.602-33.836 9.066-7.025 21.374-10.854 35.622-10.854 14.251 0 26.556 5.106 35.625 15.322 9.714 10.216 14.247 23.62 14.247 38.943 0 30.007-18.135 44.691-55.054 44.691h-80.961l12.305 150.671h159.334v-48.521h-112.698l-5.83-66.396zM953.402 825.925h-45.988v-79.165c1.946-4.469 3.888-8.938 5.181-14.046 2.591-5.746 3.888-12.769 3.888-19.153 0-3.83-0.649-7.661-1.297-11.492-3.236-34.475-27.849-66.397-72.54-66.397-49.224 0-73.189 37.667-73.189 75.335 0 0.638 0 1.277 0 2.554 0 3.831 0.649 7.023 1.294 10.215 1.297 7.661 3.888 15.322 7.127 22.345v79.804h-514.916v-74.697c3.239-6.384 5.829-13.407 7.125-21.068 1.943-5.746 3.239-11.492 3.239-17.238 0-7.023-1.295-14.046-4.534-20.43-7.772-28.729-31.089-52.99-69.95-52.99-64.769 0-86.143 65.759-64.769 109.81v76.612c-39.509 0-63.474 0-63.474 0-38.861 0-70.598-32.56-70.598-72.143v-676.74c0-40.219 31.737-72.779 70.598-72.779h882.804c38.861 0 70.598 32.56 70.598 72.779v676.74c0 39.583-31.737 72.143-70.598 72.143zM917.132 124.925h-805.081v474.358h805.727v-474.358h-0.645zM239.003 695.684h-80.961c-3.886 0-7.125 3.192-7.125 7.023v250.904c0 3.831 3.238 7.023 7.125 7.023h80.961c3.886-0.638 7.125-3.831 7.125-7.661v-250.904c0-3.192-3.239-6.384-7.125-6.384zM883.453 695.689h-80.961c-3.888 0-7.124 3.192-7.124 7.023v250.265c0 3.831 3.236 7.023 7.124 7.023h80.961c3.888 0 7.124-3.192 7.124-7.023v-250.904c-0.645-3.192-3.884-6.384-7.124-6.384z" />
<glyph unicode="&#xe91c;" glyph-name="sort" d="M460.8-59.345c-4.655 0-9.309 0-13.964 0-23.273 0-46.545 9.309-65.164 18.618-18.618 13.964-37.236 27.927-46.545 46.545-13.964 23.273-18.618 46.545-18.618 69.818v358.4l-279.273 311.855c-13.964 18.618-27.927 41.891-32.582 65.164-4.655 27.927 0 51.2 13.964 74.473s32.582 41.891 55.855 51.2c23.273 13.964 46.545 18.618 74.473 18.618h730.764c23.273 0 51.2-4.655 74.473-18.618s41.891-32.582 55.855-51.2c13.964-23.273 18.618-46.545 13.964-74.473-4.655-23.273-13.964-46.545-32.582-65.164l-274.618-311.855v-311.855c0-32.582-9.309-60.509-32.582-88.436-18.618-23.273-46.545-41.891-74.473-55.855l-97.745-27.927c-18.618-4.655-32.582-9.309-51.2-9.309zM144.291 871.564c-13.964 0-23.273-4.655-32.582-9.309s-13.964-9.309-18.618-18.618c-4.655-4.655-4.655-13.964-4.655-18.618 0-9.309 4.655-13.964 9.309-18.618l297.891-339.782v-390.982c0-9.309 0-13.964 4.655-23.273s9.309-13.964 18.618-18.618c9.309-4.655 18.618-9.309 27.927-9.309s23.273 0 32.582 4.655l88.436 32.582c13.964 4.655 27.927 13.964 37.236 27.927 9.309 9.309 13.964 23.273 13.964 37.236v339.782l297.891 339.782c9.309 9.309 9.309 13.964 13.964 23.273 0 9.309 0 13.964-4.655 23.273s-9.309 13.964-18.618 18.618c-9.309 4.655-23.273 9.309-32.582 9.309l-730.764-9.309c0 0 0 0 0 0z" />
<glyph unicode="&#xe91d;" glyph-name="arrow" horiz-adv-x="1029" d="M514.547 960c-280.199 0-509.453-229.254-509.453-509.453s229.254-509.453 509.453-509.453 509.453 229.254 509.453 509.453-229.254 509.453-509.453 509.453zM728.517 445.453c0-10.189 0-20.378-15.284-25.473l-244.537-229.254c-10.189-10.189-20.378-10.189-30.567-10.189s-20.378 5.095-30.567 10.189c-10.189 5.095-15.284 15.284-15.284 30.567 0 10.189 5.095 20.378 10.189 30.567l198.687 183.403c5.095 5.095 15.284 15.284 15.284 20.378 0 0-10.189 10.189-15.284 15.284l-188.498 178.308c-10.189 5.095-15.284 15.284-15.284 30.567 0 10.189 5.095 20.378 15.284 25.473 20.378 15.284 45.851 15.284 61.134 0l244.537-229.254c5.095-5.095 10.189-15.284 10.189-30.567v0z" />
</font>
</defs>
</svg>
